Patient4_TMGait_0pt6_02_right_17_EMG.mot
version=1
nRows=13
nColumns=33
inDegrees=no
endheader
time	1LAddLong	2LGlutMax	3LGlutMed	4LIliopsoas	5LSemiMemb	6LBicFemLong	7LRecFem	8LVastMed	9LVastLat	10LGasMed	11LTibAnt	12lTibPost	13LPeroneusLong	14LSol	15LExtDigLong	16LFlexDigLong	17RAddLong	18RGlutMax	19RGlutMed	20RIliopsoas	21RSemiMemb	22RBicFemLong	23RRecFem	24RVastMed	25RVastLat	26RGasMed	27RTibAnt	28RTibPost	29RPeroneusLong	30RSol	31RExtDigLong	32RFlexDigLong
21.145	-0.052032	0.28854	-0.02655	-0.004578	0.000153	0.44998	-0.008545	0.021362	0.056915	0.024567	0.008545	0.00946	0.31052	0.10925	0.1474	0.007477	0.032959	-0.21347	-0.037231	-0.00473	0.16632	0.10346	-0.13214	-0.063019	-0.036011	0.018921	-0.34164	0.001984	0.25375	-0.18295	-0.006714	-0.009003
21.146	-0.030212	0.31326	0.000153	0.00351	-0.060883	0.29526	0.038605	-0.00412	0.13718	-0.006256	0.037537	0.001221	0.73929	0.14114	0.23621	0.012512	0.003357	-0.20996	-0.10101	0.076294	0.061646	0.12482	-0.47028	-0.04715	0.078583	0.014496	-0.32074	-0.004578	0.051727	-0.054932	-0.001068	-0.018005
21.147	-0.001526	0.38956	0.091858	0.006866	-0.14954	-0.030518	0.055084	-0.018311	0.12817	0.013733	0.088196	0.009308	-0.045776	0.18906	0.18219	0.007172	-0.007324	-0.18616	-0.043335	0.065308	0.014648	0.041046	-0.47882	0.059357	0.13748	0.018921	-0.024109	0.00351	0.024261	0.020752	-0.003967	-0.010681
21.148	0.043793	0.47348	0.18662	0.009918	-0.16083	-0.26062	0.063019	-0.012207	0.066986	-0.032501	0.10452	0.009613	-0.64819	0.18021	0.045929	0.001526	0.00473	-0.24872	-0.1619	-0.06012	0.046997	0.073242	-0.37201	0.085297	0.098114	0.009918	0.14862	-0.00885	-0.023346	0.12146	0.000305	-0.011444
21.149	0.055389	0.46219	0.051422	-0.019836	-0.040894	-0.36453	0.10742	-0.018311	-0.028381	-0.03006	0.029449	0.00473	-0.1944	0.17166	-0.20126	-0.005951	0.036469	-0.22522	-0.1738	-0.11429	0.036774	-0.062561	-0.31143	0.004883	0.018768	-0.009918	-0.1712	0.001373	-0.049286	0.21805	-0.005188	-0.00885
21.15	0.043793	0.4599	-0.091553	-0.007477	0.016174	-0.60242	0.10742	-0.020599	-0.084229	-0.034943	0.006409	0.000305	-0.24735	0.15213	-0.33814	-0.007935	0.056	-0.15427	-0.11063	-0.068054	0.074158	-0.37842	-0.22476	-0.033112	-0.015106	-0.016785	-0.33493	0.000916	-0.000916	0.21378	-0.001373	-0.016479
21.151	0.037231	0.47455	-0.10788	0.019073	0.10849	-0.91614	0.084534	-0.011292	-0.091858	-0.030823	0.005188	0.007935	-0.12344	0.050659	-0.23178	0.000916	0.025482	-0.12619	-0.061188	-0.001678	-0.006256	-0.6366	-0.24567	0.039825	-0.037842	-0.02655	-0.26779	-0.005798	0.12634	0.14221	-0.00473	-0.013275
21.152	0.00885	0.45075	0.029755	0.020752	0.1059	-0.95108	0.072021	-0.015869	-0.015564	-0.009155	0.021362	0.007782	-0.22903	-0.17303	-0.046082	-0.004272	0.011749	-0.11887	-0.071106	0.1387	0.001831	-0.56946	-0.19134	0.036163	-0.035248	-0.01297	-0.012054	-0.000916	0.12726	0.001221	0.001678	-0.014648
21.153	-0.006866	0.41565	0.20371	0.026703	0.076904	-0.6958	0.062714	-0.003967	0.16205	0.020752	0.001221	0.017548	-0.34317	-0.17624	0.13046	0.001373	0.042877	-0.11887	-0.051727	0.159	0.067749	-0.36591	-0.22705	0.010529	-0.00946	-0.002441	0.33707	-0.00061	0.051575	-0.066986	0.002136	-0.011292
21.154	0.072937	0.44327	0.058746	0.01236	0.094299	-0.40665	0.063324	0.033264	0.14725	0.031281	-0.021362	0.00351	-0.25604	-0.13519	0.18036	-0.004425	0.077667	-0.078125	-0.1059	0.10513	0.10284	-0.12085	-0.21408	-0.028381	-0.016785	0.015259	0.48737	-0.002136	0.10529	-0.10651	0.001678	-0.005341
21.155	-0.022888	0.45197	-0.00412	-0.002747	0.080414	-0.27039	0.007019	0.071716	0.13046	0.01236	-0.075226	0.011597	-0.00824	-0.065613	0.21759	-0.000153	0.084229	-0.10971	-0.16159	0.12375	0.11307	0.057373	-0.16571	-0.053253	-0.005646	0.009308	0.23956	-0.007477	-0.009613	0.003052	0.00412	-0.010681
21.156	-0.010834	0.43411	-0.040588	0.002594	0.021515	-0.11002	-0.09903	0.06546	0.15076	0.002594	-0.048981	0.003967	0.13763	-0.040588	0.19028	0.002441	0.024567	-0.14511	-0.18509	-0.03952	0.044098	0.15823	-0.2095	-0.059509	-0.02533	0.002136	0.16464	0.000458	-0.045929	0.066986	-0.001526	-0.013733
21.157	-0.005493	0.3096	-0.007019	0.010986	-0.044708	0.037537	-0.093079	0.0354	0.22629	0.0177	-0.026398	0.001678	0.36728	0.079193	0.1265	-0.007019	0.032043	-0.21057	-0.12863	-0.10132	-0.035858	0.53467	-0.2626	-0.059052	0.039978	0	0.056458	-0.006714	0.035248	0.092163	-0.001526	-0.016785
